<svg xmlns="http://www.w3.org/2000/svg" viewBox="0 0 283.43 283.43"><defs><style>.cls-1{fill:#e6e6e6;}.cls-1,.cls-2,.cls-3,.cls-4{stroke:#000;stroke-miterlimit:10;}.cls-2{fill:#0071bc;}.cls-4{fill:#c7b299;}</style></defs><title>avatar2</title><g id="Warstwa_1" data-name="Warstwa 1"><circle class="cls-1" cx="141.72" cy="141.72" r="141.22"/></g><g id="Warstwa_5" data-name="Warstwa 5"><path class="cls-2" d="M299.5,252.1c0,29-43.46,74.74-97.07,74.74s-97.06-45.73-97.06-74.74,43.45-37.94,97.06-37.94S299.5,223.09,299.5,252.1Z" transform="translate(-60.72 -43.91)"/></g><g id="Warstwa_6" data-name="Warstwa 6"><path class="cls-3" d="M202.43,239.06l6.41-4.43c9-6.27,4.62-20.47-6.4-20.47h0c-11,0-15.46,14.23-6.39,20.5Z" transform="translate(-60.72 -43.91)"/><path class="cls-3" d="M202.39,225.92l-9.59,61.51c-1.09,7,2.68,13.65,7.75,13.65h3.68c5.08,0,8.86-6.65,7.76-13.67Z" transform="translate(-60.72 -43.91)"/></g><g id="Warstwa_4" data-name="Warstwa 4"><ellipse class="cls-4" cx="141.72" cy="120.29" rx="45.68" ry="61.42"/></g></svg>