<svg xmlns="http://www.w3.org/2000/svg" viewBox="0 0 165.09 165.09"><defs><style>.cls-1{fill:none;stroke:#47bb6c;stroke-miterlimit:10;stroke-width:3px;}.cls-2{fill:#fff;}.cls-3{fill:#47bb6c;}.cls-4{fill:#3a844a;}</style></defs><title>map</title><g id="Warstwa_3" data-name="Warstwa 3"><circle class="cls-1" cx="82.55" cy="82.55" r="81.05"/></g><g id="Warstwa_7" data-name="Warstwa 7"><polygon class="cls-2" points="115.09 62.94 142.63 123.55 99.16 113.65 60.15 126.8 24.59 113.39 48.74 58.91 68.64 64.68 91.5 59.45 115.09 62.94"/></g><g id="Warstwa_8" data-name="Warstwa 8"><polygon class="cls-3" points="68.57 71.67 52.65 66.03 34.86 107.09 62.47 115.67 98.03 103.6 127.75 111.38 108.91 68.18 93.52 66.3 68.57 71.67"/><polygon class="cls-4" points="68.57 71.67 62.47 115.67 98.03 103.6 93.52 66.3 68.57 71.67"/></g><g id="Warstwa_1" data-name="Warstwa 1"><ellipse class="cls-3" cx="82.6" cy="39.32" rx="18.45" ry="17.74"/><polygon class="cls-3" points="65 44.79 83.45 88.86 100.22 44.6 65 44.79"/><ellipse class="cls-2" cx="82.61" cy="38.23" rx="5.34" ry="5.14"/></g></svg>